<svg version="1.1" id="Layer_1" xmlns="http://www.w3.org/2000/svg" xmlns:xlink="http://www.w3.org/1999/xlink" x="0px" y="0px"
	 width="100%" viewBox="0 0 512 512" enable-background="new 0 0 512 512" xml:space="preserve">
<path fill="#F89E1D" opacity="1.000000" stroke="none" 
	d="
M513.000000,30.000000 
	C513.000000,181.020889 513.000000,332.041779 512.681763,483.225647 
	C512.108398,483.597870 511.702545,483.759827 511.619812,484.023254 
	C507.470398,497.236206 498.987305,506.309509 485.953033,511.123962 
	C485.470245,511.302338 485.310364,512.354858 485.000000,513.000000 
	C442.979095,513.000000 400.958221,513.000000 358.467010,512.604492 
	C356.762299,509.440399 356.270905,505.374451 354.147400,504.158264 
	C348.808014,501.100311 342.731598,499.329285 336.975952,497.022217 
	C337.001221,497.002075 336.960846,497.053040 336.942078,496.690216 
	C335.495911,495.011475 334.068542,493.695557 332.776123,492.257263 
	C332.911041,492.134918 332.616425,492.349152 332.700043,491.988220 
	C329.206512,488.073273 325.629333,484.519226 322.026764,480.982300 
	C322.001343,480.999390 322.034851,480.948151 322.026917,480.569031 
	C319.603180,476.145752 318.384705,471.912750 318.982666,467.079590 
	C319.590881,462.163391 319.510254,457.164490 320.043030,452.235443 
	C320.338562,449.501038 321.280731,446.837677 321.914459,444.138306 
	C322.622131,441.124176 323.249969,438.089966 324.018768,435.091736 
	C326.229858,426.468719 319.430145,418.603638 321.958191,409.946350 
	C322.739685,407.270111 323.694885,404.552032 323.872925,401.807861 
	C324.709198,388.918243 325.377747,376.016266 325.952087,363.111786 
	C326.255493,356.294159 319.766235,350.926178 321.558380,343.685516 
	C321.640900,343.352142 320.653076,342.819794 320.281677,342.296478 
	C318.823730,340.242218 316.948181,338.334442 316.063141,336.048798 
	C311.588684,324.492950 307.763672,312.669617 302.888062,301.292725 
	C300.841217,296.516571 296.765411,292.609894 293.787598,288.289215 
	C293.963196,288.270508 293.611267,288.328308 293.699707,287.963379 
	C288.956085,281.340424 283.950928,275.205750 279.366333,268.771393 
	C277.134613,265.639252 275.558563,262.007446 273.931702,258.488098 
	C272.818604,256.080170 272.130188,253.475906 271.174500,250.642303 
	C271.170135,249.901199 271.243195,249.477203 271.654877,248.976013 
	C274.027649,245.633560 276.583954,244.497818 280.528809,245.788193 
	C281.964569,246.257828 285.063843,245.301788 285.643463,244.127304 
	C289.065186,237.194077 293.527863,230.247498 294.679535,222.844818 
	C296.400543,211.782593 295.445221,200.326553 296.057648,189.061356 
	C296.463531,181.595596 294.682648,175.376282 288.955597,170.271713 
	C287.810486,169.251053 287.919434,166.823395 287.450134,165.044495 
	C297.418518,168.372787 305.875122,172.231812 314.311035,176.135483 
	C326.696136,181.866592 338.806549,182.889206 350.145081,173.779663 
	C351.501892,172.689590 352.056000,170.600403 352.991974,168.986496 
	C353.001801,168.998703 352.974365,168.985443 353.321533,168.951904 
	C359.765442,163.839050 362.770294,157.099258 363.954102,149.449692 
	C364.616425,145.169785 365.223297,141.367615 370.003815,139.091904 
	C374.704773,136.854095 375.014221,131.863281 371.292480,128.636017 
	C371.117859,127.887314 371.091125,127.441551 371.327820,126.676834 
	C371.720093,121.567451 371.760956,116.772133 372.027985,111.989433 
	C372.115601,110.420097 372.329590,108.473648 373.279694,107.406387 
	C376.551941,103.730492 379.947296,100.083679 383.767334,97.012337 
	C385.497406,95.621338 388.328247,95.094620 390.673401,95.058281 
	C402.775360,94.870743 414.882721,95.040451 426.985626,94.886230 
	C428.682373,94.864609 430.365112,93.744064 432.071899,93.082275 
	C432.089417,93.032341 432.184418,93.078987 432.533752,92.969147 
	C434.119293,89.770302 436.254150,88.754539 439.675873,88.874084 
	C447.991211,89.164574 456.323486,88.969292 464.648956,88.968826 
	C474.306488,88.968285 483.964966,89.045509 493.621155,88.931091 
	C498.154053,88.877373 499.748596,85.683884 497.237549,81.587227 
	C497.162598,80.457924 497.169067,79.699669 497.380127,78.681900 
	C495.908173,77.626793 494.241913,76.167549 492.553406,76.141411 
	C479.902405,75.945534 467.247009,76.037445 454.592987,76.028114 
	C450.770905,76.025299 445.356018,70.231079 445.370361,66.364700 
	C445.380615,63.596275 445.654358,60.655586 444.818085,58.118958 
	C444.272125,56.462917 441.834503,54.229527 440.452576,54.365906 
	C438.864166,54.522659 436.708862,56.791759 436.233368,58.534492 
	C435.514160,61.170395 436.104736,64.147102 436.001312,66.973961 
	C435.941895,68.597626 435.611389,70.211380 435.571716,70.519302 
	C431.346161,69.568611 427.941315,68.156143 424.528259,68.135994 
	C394.725769,67.960014 364.921661,68.079895 335.118469,67.981094 
	C330.712402,67.966492 325.661102,69.688744 322.505951,64.543053 
	C322.216125,64.070404 320.940002,63.999886 320.150848,64.069832 
	C315.880737,64.448318 311.565582,64.645020 307.368317,65.442902 
	C301.115936,66.631454 294.948975,68.269440 288.724274,69.721191 
	C287.367737,59.279457 284.617615,61.570290 294.481201,56.240868 
	C294.920471,56.003529 295.361603,55.765419 295.818512,55.565781 
	C299.443573,53.981976 301.094727,51.204765 300.975952,47.269108 
	C300.737457,39.363190 302.251953,31.212738 297.548859,23.945692 
	C297.129059,23.297012 296.966644,22.338278 297.023132,21.547716 
	C297.445953,15.627042 293.763611,12.212924 289.278015,9.773659 
	C283.348450,6.549154 277.107239,3.897742 271.000000,0.999998 
	C342.020905,1.000000 413.041779,1.000000 484.228088,1.305274 
	C484.494110,1.741723 484.567261,1.941532 484.699249,1.994318 
	C497.849396,7.253974 507.432068,15.935004 511.582062,29.884382 
	C511.631012,30.048975 512.508972,29.966921 513.000000,30.000000 
z"/>
<path fill="#262E6F" opacity="1.000000" stroke="none" 
	d="
M95.000000,513.000000 
	C73.312439,513.000000 51.624878,513.000000 29.493656,512.635132 
	C28.257364,511.786163 27.496126,511.238770 26.667316,510.827606 
	C16.541372,505.804138 8.108932,499.099731 3.891880,487.881470 
	C3.644149,487.393585 3.421331,487.188843 3.080187,486.682312 
	C2.976094,485.559021 2.925210,484.808411 3.172297,483.757263 
	C3.646594,481.988342 3.977114,480.520050 3.977346,479.051666 
	C4.000767,331.068604 4.003044,183.085556 3.952650,35.102509 
	C3.952065,33.382381 3.249893,31.662489 2.915492,29.560894 
	C3.477110,27.446905 3.731751,25.572985 4.563593,24.005350 
	C9.525163,14.655104 16.413860,7.294671 26.448034,3.229987 
	C27.437445,2.829192 28.155823,1.759321 29.000000,1.000000 
	C101.020897,1.000000 173.041794,1.000000 245.541840,1.368875 
	C245.755051,2.115169 245.568832,2.704912 245.211517,2.839142 
	C234.609421,6.821920 228.110275,15.276031 223.599472,24.814779 
	C219.321884,33.860374 220.209595,43.841019 222.319977,53.600765 
	C223.014145,56.811001 222.823608,60.212536 223.013458,63.152328 
	C221.757584,63.592556 221.592896,63.714458 221.497040,63.673862 
	C220.618683,63.301762 219.774292,62.840008 218.878952,62.518799 
	C208.862762,58.925346 199.009949,58.368965 190.199554,65.402176 
	C173.535446,78.704903 167.300690,97.532471 164.568970,117.528282 
	C163.444504,125.759239 165.262543,134.418320 165.985840,142.861801 
	C166.248718,145.930450 165.362183,147.207916 162.252701,147.094650 
	C158.927139,146.973511 155.584793,147.225052 152.265854,147.034363 
	C148.847488,146.837952 146.690201,148.364487 146.096680,151.530121 
	C145.243179,156.082397 144.741974,160.706345 144.223923,165.314728 
	C143.134109,175.009003 142.248474,184.727676 141.043457,194.406998 
	C140.433670,199.304947 142.509079,203.921906 146.227356,204.831726 
	C148.811859,205.464142 151.380096,206.163010 154.839279,207.061783 
	C147.116318,213.480103 145.190018,220.968506 147.000992,229.646042 
	C147.439865,231.748962 147.561691,233.918045 147.591751,236.389435 
	C147.243011,243.448898 147.016022,250.176575 147.069473,256.902008 
	C147.096222,260.266296 147.634842,263.626556 147.829712,267.311951 
	C144.890030,269.849487 141.652695,271.599457 141.896149,276.129944 
	C142.181824,281.446014 141.716995,286.805634 142.070038,292.113586 
	C142.258133,294.941498 143.602127,297.675354 144.205261,300.498444 
	C144.669403,302.671082 145.314575,305.002838 144.967270,307.113831 
	C143.937668,313.371948 141.820084,319.502533 141.294205,325.780670 
	C140.394211,336.525055 140.355331,347.342834 140.005386,358.131409 
	C139.850769,362.898041 141.192627,368.174347 135.280991,370.790802 
	C134.880737,370.967987 134.332397,371.398895 134.306244,371.745941 
	C133.808075,378.354431 128.621445,382.566498 126.049400,388.090210 
	C122.918312,394.814575 118.608597,401.509430 117.647820,408.601685 
	C116.253975,418.890778 111.959770,427.453918 106.221649,435.412750 
	C100.975349,442.689423 101.885841,449.141693 106.188339,456.154938 
	C107.120003,457.673615 107.579987,460.257996 106.954956,461.835602 
	C100.426506,478.314087 96.264381,495.308929 95.000000,513.000000 
z"/>
<path fill="#FEFEFD" opacity="1.000000" stroke="none" 
	d="
M95.468658,513.000000 
	C96.264381,495.308929 100.426506,478.314087 106.954956,461.835602 
	C107.579987,460.257996 107.120003,457.673615 106.188339,456.154938 
	C101.885841,449.141693 100.975349,442.689423 106.221649,435.412750 
	C111.959770,427.453918 116.253975,418.890778 117.647820,408.601685 
	C118.608597,401.509430 122.918312,394.814575 126.049400,388.090210 
	C128.621445,382.566498 133.808075,378.354431 134.306244,371.745941 
	C134.332397,371.398895 134.880737,370.967987 135.280991,370.790802 
	C141.192627,368.174347 139.850769,362.898041 140.005386,358.131409 
	C140.355331,347.342834 140.394211,336.525055 141.294205,325.780670 
	C141.820084,319.502533 143.937668,313.371948 144.967270,307.113831 
	C145.314575,305.002838 144.669403,302.671082 144.205261,300.498444 
	C143.602127,297.675354 142.258133,294.941498 142.070038,292.113586 
	C141.716995,286.805634 142.181824,281.446014 141.896149,276.129944 
	C141.652695,271.599457 144.890030,269.849487 148.044266,266.887451 
	C148.190475,256.111938 148.009888,246.084320 147.829300,236.056702 
	C147.561691,233.918045 147.439865,231.748962 147.000992,229.646042 
	C145.190018,220.968506 147.116318,213.480103 154.839279,207.061783 
	C151.380096,206.163010 148.811859,205.464142 146.227356,204.831726 
	C142.509079,203.921906 140.433670,199.304947 141.043457,194.406998 
	C142.248474,184.727676 143.134109,175.009003 144.223923,165.314728 
	C144.741974,160.706345 145.243179,156.082397 146.096680,151.530121 
	C146.690201,148.364487 148.847488,146.837952 152.265854,147.034363 
	C155.584793,147.225052 158.927139,146.973511 162.252701,147.094650 
	C165.362183,147.207916 166.248718,145.930450 165.985840,142.861801 
	C165.262543,134.418320 163.444504,125.759239 164.568970,117.528282 
	C167.300690,97.532471 173.535446,78.704903 190.199554,65.402176 
	C199.009949,58.368965 208.862762,58.925346 218.878952,62.518799 
	C219.774292,62.840008 220.618683,63.301762 221.497040,63.673862 
	C221.592896,63.714458 221.757584,63.592556 223.013458,63.152328 
	C222.823608,60.212536 223.014145,56.811001 222.319977,53.600765 
	C220.209595,43.841019 219.321884,33.860374 223.599472,24.814779 
	C228.110275,15.276031 234.609421,6.821920 245.211517,2.839142 
	C245.568832,2.704912 245.755051,2.115169 246.010498,1.368875 
	C252.687637,1.000000 259.375275,1.000000 266.677307,1.217237 
	C273.594086,4.263446 280.018036,6.854613 286.161163,9.995063 
	C291.267761,12.605622 296.004120,15.851358 295.216400,22.862921 
	C295.116852,23.748999 295.933472,24.703699 296.153809,25.665949 
	C297.135681,29.954350 298.108795,34.246124 298.986115,38.556820 
	C300.911865,48.019329 297.533356,54.451038 288.247467,57.786427 
	C286.903870,58.269028 285.227783,60.310181 285.244263,61.610596 
	C285.286835,64.967354 286.190918,68.313194 286.815063,72.047440 
	C289.952301,71.273666 292.168152,70.605812 294.430420,70.191078 
	C302.417511,68.726845 310.407806,67.266899 318.430878,66.025070 
	C319.678375,65.831978 322.052887,66.496841 322.284149,67.257858 
	C323.363342,70.809425 326.067841,69.955902 328.407043,69.958153 
	C360.720612,69.989204 393.034241,69.974106 425.347839,69.985016 
	C427.936584,69.985893 430.666504,69.390450 431.957764,72.935318 
	C432.230499,73.683968 434.940002,73.958107 436.383026,73.686684 
	C437.067017,73.558022 437.787964,71.647079 437.842682,70.512283 
	C438.027039,66.690132 437.700623,62.833042 438.062164,59.036228 
	C438.166229,57.943367 439.931732,57.008713 440.935486,56.001511 
	C441.722900,57.016613 443.240051,58.076706 443.180725,59.039646 
	C442.755768,65.934242 443.358673,72.438622 449.406281,78.035538 
	C462.580200,78.035538 476.727692,77.998383 490.874542,78.075920 
	C492.976379,78.087433 495.075256,78.639458 497.175537,78.941422 
	C497.169067,79.699669 497.162598,80.457924 497.116577,82.000351 
	C497.494141,86.523674 495.412109,87.051445 492.239258,87.031815 
	C474.275055,86.920700 456.309784,86.971672 438.344879,86.990097 
	C436.581757,86.991905 434.818787,87.147530 432.913818,87.238541 
	C432.631683,89.497681 432.408051,91.288338 432.184418,93.078987 
	C432.184418,93.078987 432.089417,93.032341 431.603516,93.016922 
	C418.002960,93.005257 404.888306,93.005821 391.773651,93.014336 
	C386.555695,93.017723 372.354797,102.868240 370.507568,107.762871 
	C370.392212,108.068504 370.296204,108.410622 370.308899,108.731102 
	C370.550171,114.819756 370.809113,120.907700 371.064392,126.995796 
	C371.091125,127.441551 371.117859,127.887314 371.235352,129.003677 
	C372.552155,134.057846 371.277100,136.917999 366.810669,138.734375 
	C365.265381,139.362793 363.802551,141.750671 363.474060,143.548965 
	C361.931549,151.994049 359.890900,160.136261 353.924469,166.738480 
	C353.409515,167.308289 353.281921,168.228180 352.974365,168.985443 
	C352.974365,168.985443 353.001801,168.998703 352.687805,169.132507 
	C343.993805,177.047195 334.796265,181.896545 323.052734,177.255646 
	C317.812653,175.184845 312.595032,173.051208 307.419403,170.824783 
	C300.641510,167.909088 293.915253,164.873367 287.286987,161.942444 
	C284.329254,166.699265 284.642273,169.953735 288.885773,173.138626 
	C293.084625,176.289993 294.697845,181.066696 294.609406,186.389557 
	C294.512665,192.212357 294.497925,198.039474 294.600647,203.862030 
	C294.832581,217.011978 293.158295,229.612457 285.576263,240.921555 
	C283.838470,243.513580 282.508392,244.831833 279.275482,243.931961 
	C273.624817,242.359116 272.737274,243.055695 271.316254,249.053223 
	C271.243195,249.477203 271.170135,249.901199 271.080933,251.066711 
	C272.666443,257.118408 273.161560,263.171570 276.116974,267.572601 
	C281.131409,275.039825 287.697388,281.465088 293.611267,288.328308 
	C293.611267,288.328308 293.963196,288.270508 293.852417,288.634888 
	C297.458923,295.864441 301.783569,302.478882 304.745636,309.655762 
	C308.801422,319.482635 311.792053,329.747314 315.318817,339.796387 
	C315.852478,341.316925 316.571991,343.688232 317.626190,343.945953 
	C321.475861,344.887421 320.775757,347.633148 320.852142,350.212189 
	C320.938049,353.113190 320.226013,356.151703 323.554962,358.161499 
	C324.384796,358.662537 324.485535,360.898895 324.400970,362.306396 
	C323.394928,379.052490 323.821716,395.929779 319.625061,412.394318 
	C319.057953,414.619232 319.201996,417.514587 320.166931,419.555695 
	C324.226685,428.143036 324.146484,436.457245 319.849182,444.874451 
	C319.117493,446.307678 318.711609,448.011810 318.575378,449.626251 
	C318.001617,456.424408 317.816345,463.262390 317.037170,470.033813 
	C316.478882,474.885742 317.856598,478.458160 322.034851,480.948151 
	C322.034851,480.948151 322.001343,480.999390 322.132812,481.301025 
	C325.714966,485.184845 329.165710,488.766998 332.616425,492.349152 
	C332.616425,492.349152 332.911041,492.134918 332.856445,492.574707 
	C334.188171,494.360687 335.574493,495.706879 336.960846,497.053040 
	C336.960846,497.053040 337.001221,497.002075 337.110657,497.341125 
	C340.924927,499.389984 344.542816,501.333679 348.356293,502.751312 
	C353.279602,504.581512 356.252563,507.782593 357.000000,513.000000 
	C331.312439,513.000000 305.624878,513.000000 279.315308,512.554688 
	C279.190063,504.142334 279.617950,496.169830 280.251923,488.213715 
	C280.356628,486.899506 281.052277,484.900177 282.005707,484.507935 
	C287.127563,482.400757 286.211121,478.600800 285.513214,474.516235 
	C284.686646,469.678772 284.263855,464.772705 283.652344,459.898071 
	C283.101227,455.504517 283.203156,450.896667 279.075073,447.787933 
	C278.464935,447.328461 278.351715,446.033875 278.251129,445.099518 
	C276.855499,432.132568 275.856995,419.110046 274.002106,406.210297 
	C272.933258,398.777130 272.349945,391.895599 278.146423,385.552734 
	C278.291443,382.610046 278.445221,380.106079 278.263611,377.626709 
	C277.994080,373.947510 277.487030,370.285736 277.029053,366.365845 
	C276.450073,365.715210 275.923126,365.315247 275.116882,364.556732 
	C269.920197,364.052460 265.002716,363.906799 260.011688,363.429993 
	C252.838104,351.505890 245.809769,339.867981 238.588211,328.351257 
	C236.757156,325.431122 235.552658,321.609985 230.919891,321.563049 
	C222.801132,321.480896 219.677841,315.268829 216.327377,309.371429 
	C215.301270,307.565277 214.120819,305.846832 212.866211,303.858673 
	C210.168854,307.965057 211.606979,312.417603 208.103424,316.266052 
	C203.026642,321.842560 199.437210,329.020660 196.254181,335.990906 
	C193.948120,341.040802 193.690598,346.984680 191.872086,352.308746 
	C189.392014,359.569611 189.673965,367.785706 183.648453,373.881989 
	C178.829788,378.757233 174.487732,384.168030 170.413635,389.694611 
	C167.044739,394.264587 163.789658,399.030853 166.095322,405.497864 
	C167.600250,409.718964 167.294952,414.015839 165.234314,418.386322 
	C158.941422,431.733063 151.380478,444.593018 148.621399,459.394104 
	C148.451111,460.307587 147.293289,461.715515 146.558380,461.738770 
	C140.186310,461.940338 138.388443,466.578094 136.267059,471.386353 
	C130.250992,485.022186 128.545319,498.788940 134.000000,513.000000 
	C121.312439,513.000000 108.624878,513.000000 95.468658,513.000000 
M328.457916,116.180977 
	C329.846558,118.880066 331.235199,121.579163 332.382111,123.808395 
	C336.036987,120.576134 339.156616,117.817238 343.094971,114.334297 
	C338.018127,113.767960 333.961823,113.209267 329.887177,112.987740 
	C329.343323,112.958176 328.706604,114.636314 328.457916,116.180977 
M345.242035,100.369545 
	C338.251312,100.261414 336.835052,101.528175 336.436768,108.432686 
	C339.849426,108.432686 343.247925,108.432686 347.547119,108.432686 
	C346.997009,105.509254 346.532959,103.042953 345.242035,100.369545 
z"/>
<path fill="#272E6F" opacity="1.000000" stroke="none" 
	d="
M275.396149,364.915314 
	C275.923126,365.315247 276.450073,365.715210 277.000000,366.858459 
	C277.350342,373.735321 277.677734,379.868896 278.005127,386.002472 
	C272.349945,391.895599 272.933258,398.777130 274.002106,406.210297 
	C275.856995,419.110046 276.855499,432.132568 278.251129,445.099518 
	C278.351715,446.033875 278.464935,447.328461 279.075073,447.787933 
	C283.203156,450.896667 283.101227,455.504517 283.652344,459.898071 
	C284.263855,464.772705 284.686646,469.678772 285.513214,474.516235 
	C286.211121,478.600800 287.127563,482.400757 282.005707,484.507935 
	C281.052277,484.900177 280.356628,486.899506 280.251923,488.213715 
	C279.617950,496.169830 279.190063,504.142334 278.846649,512.554688 
	C230.979111,513.000000 182.958206,513.000000 134.468658,513.000000 
	C128.545319,498.788940 130.250992,485.022186 136.267059,471.386353 
	C138.388443,466.578094 140.186310,461.940338 146.558380,461.738770 
	C147.293289,461.715515 148.451111,460.307587 148.621399,459.394104 
	C151.380478,444.593018 158.941422,431.733063 165.234314,418.386322 
	C167.294952,414.015839 167.600250,409.718964 166.095322,405.497864 
	C163.789658,399.030853 167.044739,394.264587 170.413635,389.694611 
	C174.487732,384.168030 178.829788,378.757233 183.648453,373.881989 
	C189.673965,367.785706 189.392014,359.569611 191.872086,352.308746 
	C193.690598,346.984680 193.948120,341.040802 196.254181,335.990906 
	C199.437210,329.020660 203.026642,321.842560 208.103424,316.266052 
	C211.606979,312.417603 210.168854,307.965057 212.866211,303.858673 
	C214.120819,305.846832 215.301270,307.565277 216.327377,309.371429 
	C219.677841,315.268829 222.801132,321.480896 230.919891,321.563049 
	C235.552658,321.609985 236.757156,325.431122 238.588211,328.351257 
	C245.809769,339.867981 252.838104,351.505890 260.259033,363.762939 
	C265.518707,364.589752 270.457428,364.752533 275.396149,364.915314 
z"/>
<path fill="#29377B" opacity="1.000000" stroke="none" 
	d="
M2.875220,29.942488 
	C3.249893,31.662489 3.952065,33.382381 3.952650,35.102509 
	C4.003044,183.085556 4.000767,331.068604 3.977346,479.051666 
	C3.977114,480.520050 3.646594,481.988342 2.855962,483.677002 
	C1.827770,483.931549 1.413885,483.965790 1.000000,484.000000 
	C1.000000,332.979095 1.000000,181.958206 1.302313,30.595686 
	C2.028157,30.150200 2.451689,30.046343 2.875220,29.942488 
z"/>
<path fill="#ECA73E" opacity="1.000000" stroke="none" 
	d="
M497.380127,78.681900 
	C495.075256,78.639458 492.976379,78.087433 490.874542,78.075920 
	C476.727692,77.998383 462.580200,78.035538 449.406281,78.035538 
	C443.358673,72.438622 442.755768,65.934242 443.180725,59.039646 
	C443.240051,58.076706 441.722900,57.016613 440.935486,56.001511 
	C439.931732,57.008713 438.166229,57.943367 438.062164,59.036228 
	C437.700623,62.833042 438.027039,66.690132 437.842682,70.512283 
	C437.787964,71.647079 437.067017,73.558022 436.383026,73.686684 
	C434.940002,73.958107 432.230499,73.683968 431.957764,72.935318 
	C430.666504,69.390450 427.936584,69.985893 425.347839,69.985016 
	C393.034241,69.974106 360.720612,69.989204 328.407043,69.958153 
	C326.067841,69.955902 323.363342,70.809425 322.284149,67.257858 
	C322.052887,66.496841 319.678375,65.831978 318.430878,66.025070 
	C310.407806,67.266899 302.417511,68.726845 294.430420,70.191078 
	C292.168152,70.605812 289.952301,71.273666 286.815063,72.047440 
	C286.190918,68.313194 285.286835,64.967354 285.244263,61.610596 
	C285.227783,60.310181 286.903870,58.269028 288.247467,57.786427 
	C297.533356,54.451038 300.911865,48.019329 298.986115,38.556820 
	C298.108795,34.246124 297.135681,29.954350 296.153809,25.665949 
	C295.933472,24.703699 295.116852,23.748999 295.216400,22.862921 
	C296.004120,15.851358 291.267761,12.605622 286.161163,9.995063 
	C280.018036,6.854613 273.594086,4.263446 267.145874,1.217237 
	C268.066681,1.000000 269.133331,1.000000 270.600006,0.999998 
	C277.107239,3.897742 283.348450,6.549154 289.278015,9.773659 
	C293.763611,12.212924 297.445953,15.627042 297.023132,21.547716 
	C296.966644,22.338278 297.129059,23.297012 297.548859,23.945692 
	C302.251953,31.212738 300.737457,39.363190 300.975952,47.269108 
	C301.094727,51.204765 299.443573,53.981976 295.818512,55.565781 
	C295.361603,55.765419 294.920471,56.003529 294.481201,56.240868 
	C284.617615,61.570290 287.367737,59.279457 288.724274,69.721191 
	C294.948975,68.269440 301.115936,66.631454 307.368317,65.442902 
	C311.565582,64.645020 315.880737,64.448318 320.150848,64.069832 
	C320.940002,63.999886 322.216125,64.070404 322.505951,64.543053 
	C325.661102,69.688744 330.712402,67.966492 335.118469,67.981094 
	C364.921661,68.079895 394.725769,67.960014 424.528259,68.135994 
	C427.941315,68.156143 431.346161,69.568611 435.571716,70.519302 
	C435.611389,70.211380 435.941895,68.597626 436.001312,66.973961 
	C436.104736,64.147102 435.514160,61.170395 436.233368,58.534492 
	C436.708862,56.791759 438.864166,54.522659 440.452576,54.365906 
	C441.834503,54.229527 444.272125,56.462917 444.818085,58.118958 
	C445.654358,60.655586 445.380615,63.596275 445.370361,66.364700 
	C445.356018,70.231079 450.770905,76.025299 454.592987,76.028114 
	C467.247009,76.037445 479.902405,75.945534 492.553406,76.141411 
	C494.241913,76.167549 495.908173,77.626793 497.380127,78.681900 
z"/>
<path fill="#000000" opacity="1.000000" stroke="none" 
	d="
M1.000000,484.468658 
	C1.413885,483.965790 1.827770,483.931549 2.557991,483.977539 
	C2.925210,484.808411 2.976094,485.559021 3.121251,486.919861 
	C3.400891,487.813232 3.656352,488.001129 3.981908,488.093781 
	C8.108932,499.099731 16.541372,505.804138 26.667316,510.827606 
	C27.496126,511.238770 28.257364,511.786163 29.025000,512.635132 
	C19.738909,513.000000 10.477816,513.000000 1.000000,513.000000 
	C1.000000,503.646881 1.000000,494.292114 1.000000,484.468658 
z"/>
<path fill="#000000" opacity="1.000000" stroke="none" 
	d="
M2.915492,29.560894 
	C2.451689,30.046343 2.028157,30.150200 1.302313,30.127029 
	C1.000000,20.408154 1.000000,10.816306 1.000000,1.000000 
	C10.019656,1.000000 19.041170,1.000000 28.531342,1.000000 
	C28.155823,1.759321 27.437445,2.829192 26.448034,3.229987 
	C16.413860,7.294671 9.525163,14.655104 4.563593,24.005350 
	C3.731751,25.572985 3.477110,27.446905 2.915492,29.560894 
z"/>
<path fill="#000000" opacity="1.000000" stroke="none" 
	d="
M485.468689,513.000000 
	C485.310364,512.354858 485.470245,511.302338 485.953033,511.123962 
	C498.987305,506.309509 507.470398,497.236206 511.619812,484.023254 
	C511.702545,483.759827 512.108398,483.597870 512.681763,483.694275 
	C513.000000,493.591827 513.000000,503.183685 513.000000,513.000000 
	C503.980347,513.000000 494.958832,513.000000 485.468689,513.000000 
z"/>
<path fill="#000000" opacity="1.000000" stroke="none" 
	d="
M513.000000,29.531342 
	C512.508972,29.966921 511.631012,30.048975 511.582062,29.884382 
	C507.432068,15.935004 497.849396,7.253974 484.699249,1.994318 
	C484.567261,1.941532 484.494110,1.741723 484.696777,1.305274 
	C494.261078,1.000000 503.522186,1.000000 513.000000,1.000000 
	C513.000000,10.353114 513.000000,19.707899 513.000000,29.531342 
z"/>
<path fill="#ECA73E" opacity="1.000000" stroke="none" 
	d="
M357.250000,513.000000 
	C356.252563,507.782593 353.279602,504.581512 348.356293,502.751312 
	C344.542816,501.333679 340.924927,499.389984 337.085358,497.361267 
	C342.731598,499.329285 348.808014,501.100311 354.147400,504.158264 
	C356.270905,505.374451 356.762299,509.440399 357.998352,512.604492 
	C358.000000,513.000000 357.500000,513.000000 357.250000,513.000000 
z"/>
<path fill="#ECA73E" opacity="1.000000" stroke="none" 
	d="
M322.026917,480.569031 
	C317.856598,478.458160 316.478882,474.885742 317.037170,470.033813 
	C317.816345,463.262390 318.001617,456.424408 318.575378,449.626251 
	C318.711609,448.011810 319.117493,446.307678 319.849182,444.874451 
	C324.146484,436.457245 324.226685,428.143036 320.166931,419.555695 
	C319.201996,417.514587 319.057953,414.619232 319.625061,412.394318 
	C323.821716,395.929779 323.394928,379.052490 324.400970,362.306396 
	C324.485535,360.898895 324.384796,358.662537 323.554962,358.161499 
	C320.226013,356.151703 320.938049,353.113190 320.852142,350.212189 
	C320.775757,347.633148 321.475861,344.887421 317.626190,343.945953 
	C316.571991,343.688232 315.852478,341.316925 315.318817,339.796387 
	C311.792053,329.747314 308.801422,319.482635 304.745636,309.655762 
	C301.783569,302.478882 297.458923,295.864441 293.676849,288.653595 
	C296.765411,292.609894 300.841217,296.516571 302.888062,301.292725 
	C307.763672,312.669617 311.588684,324.492950 316.063141,336.048798 
	C316.948181,338.334442 318.823730,340.242218 320.281677,342.296478 
	C320.653076,342.819794 321.640900,343.352142 321.558380,343.685516 
	C319.766235,350.926178 326.255493,356.294159 325.952087,363.111786 
	C325.377747,376.016266 324.709198,388.918243 323.872925,401.807861 
	C323.694885,404.552032 322.739685,407.270111 321.958191,409.946350 
	C319.430145,418.603638 326.229858,426.468719 324.018768,435.091736 
	C323.249969,438.089966 322.622131,441.124176 321.914459,444.138306 
	C321.280731,446.837677 320.338562,449.501038 320.043030,452.235443 
	C319.510254,457.164490 319.590881,462.163391 318.982666,467.079590 
	C318.384705,471.912750 319.603180,476.145752 322.026917,480.569031 
z"/>
<path fill="#ECA73E" opacity="1.000000" stroke="none" 
	d="
M271.654877,248.976013 
	C272.737274,243.055695 273.624817,242.359116 279.275482,243.931961 
	C282.508392,244.831833 283.838470,243.513580 285.576263,240.921555 
	C293.158295,229.612457 294.832581,217.011978 294.600647,203.862030 
	C294.497925,198.039474 294.512665,192.212357 294.609406,186.389557 
	C294.697845,181.066696 293.084625,176.289993 288.885773,173.138626 
	C284.642273,169.953735 284.329254,166.699265 287.286987,161.942444 
	C293.915253,164.873367 300.641510,167.909088 307.419403,170.824783 
	C312.595032,173.051208 317.812653,175.184845 323.052734,177.255646 
	C334.796265,181.896545 343.993805,177.047195 352.677979,169.120300 
	C352.056000,170.600403 351.501892,172.689590 350.145081,173.779663 
	C338.806549,182.889206 326.696136,181.866592 314.311035,176.135483 
	C305.875122,172.231812 297.418518,168.372787 287.450134,165.044495 
	C287.919434,166.823395 287.810486,169.251053 288.955597,170.271713 
	C294.682648,175.376282 296.463531,181.595596 296.057648,189.061356 
	C295.445221,200.326553 296.400543,211.782593 294.679535,222.844818 
	C293.527863,230.247498 289.065186,237.194077 285.643463,244.127304 
	C285.063843,245.301788 281.964569,246.257828 280.528809,245.788193 
	C276.583954,244.497818 274.027649,245.633560 271.654877,248.976013 
z"/>
<path fill="#ECA73E" opacity="1.000000" stroke="none" 
	d="
M371.327820,126.676834 
	C370.809113,120.907700 370.550171,114.819756 370.308899,108.731102 
	C370.296204,108.410622 370.392212,108.068504 370.507568,107.762871 
	C372.354797,102.868240 386.555695,93.017723 391.773651,93.014336 
	C404.888306,93.005821 418.002960,93.005257 431.585999,93.066856 
	C430.365112,93.744064 428.682373,94.864609 426.985626,94.886230 
	C414.882721,95.040451 402.775360,94.870743 390.673401,95.058281 
	C388.328247,95.094620 385.497406,95.621338 383.767334,97.012337 
	C379.947296,100.083679 376.551941,103.730492 373.279694,107.406387 
	C372.329590,108.473648 372.115601,110.420097 372.027985,111.989433 
	C371.760956,116.772133 371.720093,121.567451 371.327820,126.676834 
z"/>
<path fill="#ECA73E" opacity="1.000000" stroke="none" 
	d="
M432.533752,92.969147 
	C432.408051,91.288338 432.631683,89.497681 432.913818,87.238541 
	C434.818787,87.147530 436.581757,86.991905 438.344879,86.990097 
	C456.309784,86.971672 474.275055,86.920700 492.239258,87.031815 
	C495.412109,87.051445 497.494141,86.523674 497.197937,82.371414 
	C499.748596,85.683884 498.154053,88.877373 493.621155,88.931091 
	C483.964966,89.045509 474.306488,88.968285 464.648956,88.968826 
	C456.323486,88.969292 447.991211,89.164574 439.675873,88.874084 
	C436.254150,88.754539 434.119293,89.770302 432.533752,92.969147 
z"/>
<path fill="#ECA73E" opacity="1.000000" stroke="none" 
	d="
M353.321533,168.951904 
	C353.281921,168.228180 353.409515,167.308289 353.924469,166.738480 
	C359.890900,160.136261 361.931549,151.994049 363.474060,143.548965 
	C363.802551,141.750671 365.265381,139.362793 366.810669,138.734375 
	C371.277100,136.917999 372.552155,134.057846 371.383240,129.306641 
	C375.014221,131.863281 374.704773,136.854095 370.003815,139.091904 
	C365.223297,141.367615 364.616425,145.169785 363.954102,149.449692 
	C362.770294,157.099258 359.765442,163.839050 353.321533,168.951904 
z"/>
<path fill="#ECA73E" opacity="1.000000" stroke="none" 
	d="
M293.699707,287.963379 
	C287.697388,281.465088 281.131409,275.039825 276.116974,267.572601 
	C273.161560,263.171570 272.666443,257.118408 271.158356,251.383835 
	C272.130188,253.475906 272.818604,256.080170 273.931702,258.488098 
	C275.558563,262.007446 277.134613,265.639252 279.366333,268.771393 
	C283.950928,275.205750 288.956085,281.340424 293.699707,287.963379 
z"/>
<path fill="#ECA73E" opacity="1.000000" stroke="none" 
	d="
M332.700043,491.988220 
	C329.165710,488.766998 325.714966,485.184845 322.158203,481.283936 
	C325.629333,484.519226 329.206512,488.073273 332.700043,491.988220 
z"/>
<path fill="#ECA73E" opacity="1.000000" stroke="none" 
	d="
M336.942078,496.690216 
	C335.574493,495.706879 334.188171,494.360687 332.721497,492.697052 
	C334.068542,493.695557 335.495911,495.011475 336.942078,496.690216 
z"/>
<path fill="#040643" opacity="1.000000" stroke="none" 
	d="
M147.591751,236.389435 
	C148.009888,246.084320 148.190475,256.111938 148.156494,266.564087 
	C147.634842,263.626556 147.096222,260.266296 147.069473,256.902008 
	C147.016022,250.176575 147.243011,243.448898 147.591751,236.389435 
z"/>
<path fill="#29377B" opacity="1.000000" stroke="none" 
	d="
M3.891880,487.881470 
	C3.656352,488.001129 3.400891,487.813232 3.174461,487.292542 
	C3.421331,487.188843 3.644149,487.393585 3.891880,487.881470 
z"/>
<path fill="#ECA53B" opacity="1.000000" stroke="none" 
	d="
M328.285400,115.852295 
	C328.706604,114.636314 329.343323,112.958176 329.887177,112.987740 
	C333.961823,113.209267 338.018127,113.767960 343.094971,114.334297 
	C339.156616,117.817238 336.036987,120.576134 332.382111,123.808395 
	C331.235199,121.579163 329.846558,118.880066 328.285400,115.852295 
z"/>
<path fill="#EFA539" opacity="1.000000" stroke="none" 
	d="
M345.655457,100.473099 
	C346.532959,103.042953 346.997009,105.509254 347.547119,108.432686 
	C343.247925,108.432686 339.849426,108.432686 336.436768,108.432686 
	C336.835052,101.528175 338.251312,100.261414 345.655457,100.473099 
z"/>
<path fill="#070941" opacity="1.000000" stroke="none" 
	d="
M278.146423,385.552734 
	C277.677734,379.868896 277.350342,373.735321 277.052002,367.109131 
	C277.487030,370.285736 277.994080,373.947510 278.263611,377.626709 
	C278.445221,380.106079 278.291443,382.610046 278.146423,385.552734 
z"/>
<path fill="#070941" opacity="1.000000" stroke="none" 
	d="
M275.116882,364.556732 
	C270.457428,364.752533 265.518707,364.589752 260.332642,364.094055 
	C265.002716,363.906799 269.920197,364.052460 275.116882,364.556732 
z"/>
</svg>